<svg width="24" height="24" viewBox="0 0 24 24" fill="none" xmlns="http://www.w3.org/2000/svg">
<path d="M12.0701 21.9801C10.6601 21.9801 9.24009 21.4401 8.17009 20.3701L3.64009 15.8401C2.54009 14.7401 1.96009 13.2201 2.03009 11.6701L2.27009 6.67005C2.38009 4.28005 4.27009 2.39005 6.67009 2.27005L11.6701 2.03005C13.2201 1.97005 14.7401 2.54005 15.8401 3.64005L20.3701 8.17005C22.5201 10.3201 22.5201 13.8301 20.3701 15.9801L15.9801 20.3701C14.9001 21.4401 13.4901 21.9801 12.0701 21.9801ZM4.70009 14.7701L9.23009 19.3001C9.99009 20.0601 11.0001 20.4801 12.0701 20.4801C13.1401 20.4801 14.1501 20.0601 14.9101 19.3001L19.3001 14.9101C20.0601 14.1501 20.4801 13.1401 20.4801 12.0701C20.4801 11.0001 20.0601 9.99005 19.3001 9.23005L14.7701 4.70005C13.9701 3.90005 12.8601 3.47005 11.7401 3.53005L6.74009 3.77005C5.11009 3.84005 3.84009 5.11005 3.76009 6.73005L3.52009 11.7301C3.47009 12.8601 3.90009 13.9701 4.70009 14.7701Z" fill="white" fill-opacity="0.87"/>
<path d="M9.5 12.75C7.71 12.75 6.25 11.29 6.25 9.5C6.25 7.71 7.71 6.25 9.5 6.25C11.29 6.25 12.75 7.71 12.75 9.5C12.75 11.29 11.29 12.75 9.5 12.75ZM9.5 7.75C8.54 7.75 7.75 8.54 7.75 9.5C7.75 10.46 8.54 11.25 9.5 11.25C10.46 11.25 11.25 10.46 11.25 9.5C11.25 8.54 10.46 7.75 9.5 7.75Z" fill="white" fill-opacity="0.87"/>
</svg>
